<svg width="192" height="192" viewBox="0 0 192 192" fill="none" xmlns="http://www.w3.org/2000/svg">
  <rect width="192" height="192" rx="24" fill="#374151"/>
  <g transform="translate(32, 32)">
    <!-- Car body -->
    <path d="M20 80h88c8.837 0 16 7.163 16 16v24c0 8.837-7.163 16-16 16H20c-8.837 0-16-7.163-16-16V96c0-8.837 7.163-16 16-16z" fill="#ffffff"/>
    
    <!-- Car roof -->
    <path d="M32 80V64c0-8.837 7.163-16 16-16h32c8.837 0 16 7.163 16 16v16" fill="#ffffff"/>
    
    <!-- Windows -->
    <rect x="36" y="52" width="24" height="24" rx="4" fill="#374151"/>
    <rect x="68" y="52" width="24" height="24" rx="4" fill="#374151"/>
    
    <!-- Wheels -->
    <circle cx="32" cy="120" r="12" fill="#374151"/>
    <circle cx="96" cy="120" r="12" fill="#374151"/>
    <circle cx="32" cy="120" r="6" fill="#ffffff"/>
    <circle cx="96" cy="120" r="6" fill="#ffffff"/>
    
    <!-- Water drops -->
    <circle cx="16" cy="40" r="3" fill="#60A5FA" opacity="0.8"/>
    <circle cx="112" cy="36" r="2" fill="#60A5FA" opacity="0.6"/>
    <circle cx="24" cy="28" r="2" fill="#60A5FA" opacity="0.7"/>
    <circle cx="104" cy="24" r="3" fill="#60A5FA" opacity="0.9"/>
    
    <!-- Sparkles -->
    <path d="M120 44l2-6 2 6 6-2-6 2z" fill="#FDE047"/>
    <path d="M8 60l1-3 1 3 3-1-3 1z" fill="#FDE047"/>
    <path d="M116 68l1-3 1 3 3-1-3 1z" fill="#FDE047"/>
  </g>
</svg>